<svg xmlns="http://www.w3.org/2000/svg" xmlns:xlink="http://www.w3.org/1999/xlink" width="52.024" height="72.311" viewBox="0 0 52.024 72.311">
  <defs>
    <clipPath id="clip-path">
      <rect id="Rectangle_260" data-name="Rectangle 260" width="52.024" height="72.311" fill="#efe7d8"/>
    </clipPath>
  </defs>
  <g id="Group_98" data-name="Group 98" transform="translate(0 0)">
    <g id="Group_97" data-name="Group 97" transform="translate(0 0)" clip-path="url(#clip-path)">
      <path id="Path_38" data-name="Path 38" d="M52.023,26.141A26.07,26.07,0,0,1,33.789,50.778c-.56.183-1.134.345-1.709.48A24.957,24.957,0,0,1,11.8,47.577l1.094-.622.459-.277.155-.087A23.514,23.514,0,0,0,26.516,49.6a.366.366,0,0,0,.121-.007,21.6,21.6,0,0,0,2.3-.263C40.057,47.739,48.89,37.366,48.748,26.141,48.809,15.038,39.854,4.787,28.8,3.5,14.244,1.43,1.285,13.8,2.284,28.417a23.545,23.545,0,0,0,1.722,7.422l-.432.493-.81.938c-11.076-22.448,13.263-45.8,35.4-34.193A26.293,26.293,0,0,1,52.023,26.141" transform="translate(0 0)" fill="#efe7d8"/>
      <path id="Path_39" data-name="Path 39" d="M50.724,48.1l-.02.02h.041Zm0,0-.02.02h.041Z" transform="translate(-12.459 -11.82)" fill="#efe7d8"/>
      <path id="Path_40" data-name="Path 40" d="M47.743,60.559l-.02.723a20.915,20.915,0,0,1-.48,4.018c-.04.189-.081.372-.128.554C43.873,78.9,28.448,86.175,16.055,79.084A21.632,21.632,0,0,1,5.608,65.158c-.054-.229-.1-.453-.142-.675a20.649,20.649,0,0,1,.567-10.765,21.489,21.489,0,0,1,18.823-14.81c.054,0,.115-.007.176-.007a20.534,20.534,0,0,1,16.323,6.22l.642.649-2.5.061a19.45,19.45,0,0,0-11.028-4.4,18.936,18.936,0,0,0-5.2.364l-.514.121C12.828,44.371,6.081,54.845,9.032,65.07c.047.169.094.331.149.493.142.459.311.925.493,1.377A18.745,18.745,0,0,0,40.8,72.756a19.923,19.923,0,0,0,4.093-6.7c.06-.149.115-.3.162-.459a17.637,17.637,0,0,0,.79-3.282v-.007l.277-.256h.007l.338-.311Z" transform="translate(-1.231 -9.545)" fill="#efe7d8"/>
      <line id="Line_15" data-name="Line 15" x1="0.432" y2="0.493" transform="translate(3.574 35.839)" fill="#1f150f"/>
      <line id="Line_16" data-name="Line 16" x1="0.459" y2="0.277" transform="translate(12.893 46.678)" fill="#1f150f"/>
      <path id="Path_41" data-name="Path 41" d="M51.353,48.132H50.7" transform="translate(-12.459 -11.827)" fill="#efe7d8"/>
      <line id="Line_17" data-name="Line 17" x1="0.338" y2="0.311" transform="translate(44.898 52.196)" fill="#1f150f"/>
    </g>
  </g>
</svg>
